<svg width="25" height="25" viewBox="0 0 25 25" fill="none" xmlns="http://www.w3.org/2000/svg">
<circle cx="12.5" cy="12.5" r="12.5" fill="#FFFDD7"/>
<path d="M14.3604 7.75781H15.5791V14.0103C15.5791 14.7043 15.4246 15.2819 15.1157 15.7432C14.8068 16.2044 14.3963 16.5514 13.8843 16.7842C13.3765 17.0127 12.8242 17.127 12.2275 17.127C11.6012 17.127 11.0342 17.0127 10.5264 16.7842C10.0228 16.5514 9.62288 16.2044 9.32666 15.7432C9.03467 15.2819 8.88867 14.7043 8.88867 14.0103V7.75781H10.1011V14.0103C10.1011 14.4927 10.1899 14.8905 10.3677 15.2036C10.5454 15.5168 10.793 15.7495 11.1104 15.9019C11.432 16.0542 11.8044 16.1304 12.2275 16.1304C12.6549 16.1304 13.0273 16.0542 13.3447 15.9019C13.6663 15.7495 13.916 15.5168 14.0938 15.2036C14.2715 14.8905 14.3604 14.4927 14.3604 14.0103V7.75781Z" fill="#FFD600"/>
</svg>
